<svg xmlns="http://www.w3.org/2000/svg" viewBox="0 0 142.84 140">
  <g>
    <path d="M80.81,140s-7.69-9.36-25.62-12.4c-17.46-4.07-38.58-21.12-44-45C4.92,58.86,15.48,34.08,29,22.5,42.4,10.34,55,8.45,54.72,8.28,55,8.65,42.56,10.81,29.49,23,16.3,34.68,6.27,59.13,12.63,82.2c5.53,23.29,26.21,39.61,43.1,43.4a58.67,58.67,0,0,1,10.81,2.72c11.92,4.23,16.5,9.68,16.5,9.68Z"/>
    <path d="M62,140s7.69-9.36,25.62-12.4c17.46-4.07,38.58-21.12,44-45,6.28-23.7-4.29-48.48-17.79-60.06-13.41-12.16-26-14.06-25.73-14.22-.3.36,12.16,2.53,25.23,14.75,13.18,11.65,23.22,36.11,16.85,59.17-5.53,23.29-26.21,39.61-43.1,43.4a58.67,58.67,0,0,0-10.81,2.72c-11.92,4.23-16.5,9.68-16.5,9.68Z"/>
    <path d="M50,112.8s4.89,1.68,6.51,5.58a16.44,16.44,0,0,1,1.15,9s-4.9-2.55-6.54-5.19C48.84,118.43,50,112.8,50,112.8Z"/>
    <path d="M41.45,134.2s4.94,1.52,8.55-.68a16.43,16.43,0,0,0,6.2-6.56s-5.46-.82-8.34.35C43.8,129,41.45,134.2,41.45,134.2Z"/>
    <path d="M42.41,108.6s4.43,2.46,5.33,6.49a16.11,16.11,0,0,1-.41,8.84s-4.29-3.29-5.43-6.12C40.31,113.83,42.41,108.6,42.41,108.6Z"/>
    <path d="M30.49,127.8s4.51,2.31,8.37.8a16.11,16.11,0,0,0,7.1-5.28s-5.13-1.72-8.11-1.08C33.66,123.13,30.49,127.8,30.49,127.8Z"/>
    <path d="M35.58,103.15s3.86,3.12,4,7.17a15.79,15.79,0,0,1-1.9,8.46s-3.58-3.91-4.2-6.83C32.66,107.84,35.58,103.15,35.58,103.15Z"/>
    <path d="M20.8,119.65s4,3,7.94,2.19A15.8,15.8,0,0,0,36.49,118s-4.66-2.54-7.64-2.43C24.66,115.68,20.8,119.65,20.8,119.65Z"/>
    <path d="M29.78,96.53s3.19,3.67,2.68,7.61A15.46,15.46,0,0,1,29.19,112s-2.79-4.38-2.89-7.31C26.17,100.57,29.78,96.53,29.78,96.53Z"/>
    <path d="M12.71,109.95S16,113.51,20,113.41A15.45,15.45,0,0,0,28.14,111s-4.06-3.24-7-3.64C17.11,106.77,12.71,109.95,12.71,109.95Z"/>
    <path d="M25.18,89s2.46,4.09,1.29,7.8a15.16,15.16,0,0,1-4.49,7s-2-4.7-1.54-7.54C21,92.32,25.18,89,25.18,89Z"/>
    <path d="M6.42,99.08s2.59,4,6.45,4.59a15.16,15.16,0,0,0,8.27-1S17.77,98.88,15,98C11.21,96.76,6.42,99.08,6.42,99.08Z"/>
    <path d="M22,80.89s1.68,4.36-.08,7.75a14.84,14.84,0,0,1-5.53,6s-1.08-4.87-.21-7.54C17.41,83.35,22,80.89,22,80.89Z"/>
    <path d="M2.2,87.39S4,91.69,7.63,92.91a14.86,14.86,0,0,0,8.15.48s-2.6-4.26-5.09-5.58C7.2,86,2.2,87.39,2.2,87.39Z"/>
    <path d="M20.25,72.35s.87,4.5-1.4,7.47a14.56,14.56,0,0,1-6.36,4.85s-.22-4.89,1.09-7.31C15.41,73.94,20.25,72.35,20.25,72.35Z"/>
    <path d="M0,75.25s1,4.46,4.31,6.26a14.57,14.57,0,0,0,7.78,1.85s-1.79-4.55-4-6.24C5.11,74.73,0,75.25,0,75.25Z"/>
    <path d="M20,63.58s.08,4.49-2.62,7a14.26,14.26,0,0,1-7,3.6s.62-4.75,2.29-6.87C15.06,64.29,20,63.58,20,63.58Z"/>
    <path d="M0,62.94s.23,4.48,3.1,6.77a14.27,14.27,0,0,0,7.19,3.11s-.95-4.7-2.76-6.7C5,63.3,0,62.94,0,62.94Z"/>
    <path d="M21.26,54.63S20.58,59,17.55,60.9a14,14,0,0,1-7.33,2.29s1.41-4.48,3.38-6.24C16.37,54.47,21.26,54.63,21.26,54.63Z"/>
    <path d="M2.06,50.6S1.52,55,3.89,57.66a14,14,0,0,0,6.41,4.22s-.12-4.7-1.52-6.94C6.81,51.8,2.06,50.6,2.06,50.6Z"/>
    <path d="M24.07,45.89s-1.4,4.08-4.65,5.43a13.68,13.68,0,0,1-7.46,1s2.12-4.08,4.33-5.45C19.37,44.91,24.07,45.89,24.07,45.89Z"/>
    <path d="M6.22,38.74S5,42.86,6.8,45.87A13.71,13.71,0,0,0,12.27,51s.69-4.55-.29-7C10.61,40.71,6.22,38.74,6.22,38.74Z"/>
    <path d="M28.4,37.79s-2,3.7-5.41,4.45a13.4,13.4,0,0,1-7.37-.34s2.74-3.58,5.1-4.52C24,36,28.4,37.79,28.4,37.79Z"/>
    <path d="M12.4,27.85s-1.92,3.76-.66,7a13.43,13.43,0,0,0,4.4,5.92s1.44-4.28.9-6.76C16.29,30.5,12.4,27.85,12.4,27.85Z"/>
    <path d="M34.12,30.58s-2.6,3.22-6,3.37a13.15,13.15,0,0,1-7.05-1.59s3.26-3,5.7-3.5C30.21,28.15,34.12,30.58,34.12,30.58Z"/>
    <path d="M20.36,18.26s-2.49,3.31-1.83,6.62a13.18,13.18,0,0,0,3.24,6.46s2.12-3.88,2-6.37C23.67,21.48,20.36,18.26,20.36,18.26Z"/>
    <path d="M41,24.53s-3.06,2.66-6.35,2.23A12.9,12.9,0,0,1,28.06,24s3.65-2.33,6.09-2.41C37.58,21.52,41,24.53,41,24.53Z"/>
    <path d="M29.77,10.3s-3,2.77-2.89,6.08a12.9,12.9,0,0,0,2,6.79s2.7-3.39,3-5.81C32.41,14,29.77,10.3,29.77,10.3Z"/>
    <path d="M48.68,19.8s-3.41,2-6.51,1.08a12.64,12.64,0,0,1-5.85-3.75s3.92-1.62,6.29-1.28C45.95,16.32,48.68,19.8,48.68,19.8Z"/>
    <path d="M40.31,4.16S37,6.33,36.49,9.54a12.65,12.65,0,0,0,.8,6.9s3.19-2.81,3.92-5.09C42.24,8.15,40.31,4.16,40.31,4.16Z"/>
    <path d="M57,16.52s-3.64,1.4-6.46-.07a12.36,12.36,0,0,1-5-4.61s4.06-.9,6.29-.17C54.93,12.69,57,16.52,57,16.52Z"/>
    <path d="M51.57,0S48,1.52,47,4.54a12.4,12.4,0,0,0-.4,6.79s3.55-2.17,4.65-4.24C52.75,4.18,51.57,0,51.57,0Z"/>
    <path d="M51.72,9.3s2.69,1.52,5.07.7a9.77,9.77,0,0,0,4.45-3s-3.07-1.18-4.9-.87C53.78,6.54,51.72,9.3,51.72,9.3Z"/>
    <path d="M92.81,112.8s-4.89,1.68-6.51,5.58a16.44,16.44,0,0,0-1.15,9s4.9-2.55,6.54-5.19C94,118.43,92.81,112.8,92.81,112.8Z"/>
    <path d="M101.39,134.2s-4.94,1.52-8.55-.68a16.45,16.45,0,0,1-6.2-6.56s5.46-.82,8.34.35C99,129,101.39,134.2,101.39,134.2Z"/>
    <path d="M100.42,108.6s-4.44,2.46-5.33,6.49a16.09,16.09,0,0,0,.41,8.84s4.29-3.29,5.43-6.12C102.52,113.83,100.42,108.6,100.42,108.6Z"/>
    <path d="M112.35,127.8s-4.51,2.31-8.37.8a16.11,16.11,0,0,1-7.1-5.28s5.13-1.72,8.11-1.08C109.17,123.13,112.35,127.8,112.35,127.8Z"/>
    <path d="M107.26,103.15s-3.86,3.12-4,7.17a15.78,15.78,0,0,0,1.9,8.46s3.58-3.91,4.2-6.83C110.18,107.84,107.26,103.15,107.26,103.15Z"/>
    <path d="M122,119.65s-4,3-7.94,2.19a15.79,15.79,0,0,1-7.75-3.89s4.66-2.54,7.64-2.43C118.18,115.68,122,119.65,122,119.65Z"/>
    <path d="M113.06,96.53s-3.2,3.67-2.68,7.61a15.44,15.44,0,0,0,3.27,7.84s2.79-4.38,2.89-7.31C116.67,100.57,113.06,96.53,113.06,96.53Z"/>
    <path d="M130.12,109.95s-3.32,3.56-7.29,3.47a15.46,15.46,0,0,1-8.14-2.43s4.06-3.24,7-3.64C125.73,106.77,130.12,109.95,130.12,109.95Z"/>
    <path d="M117.66,89s-2.46,4.09-1.29,7.8a15.16,15.16,0,0,0,4.49,7s2-4.7,1.54-7.54C121.84,92.32,117.66,89,117.66,89Z"/>
    <path d="M136.41,99.08s-2.59,4-6.45,4.59a15.16,15.16,0,0,1-8.27-1s3.37-3.82,6.1-4.7C131.63,96.76,136.41,99.08,136.41,99.08Z"/>
    <path d="M120.83,80.89s-1.68,4.36.08,7.75a14.84,14.84,0,0,0,5.53,6s1.08-4.87.21-7.54C125.42,83.35,120.83,80.89,120.83,80.89Z"/>
    <path d="M140.64,87.39s-1.82,4.31-5.44,5.52a14.85,14.85,0,0,1-8.14.48s2.6-4.26,5.08-5.58C135.63,86,140.64,87.39,140.64,87.39Z"/>
    <path d="M122.58,72.35s-.87,4.5,1.4,7.47a14.56,14.56,0,0,0,6.36,4.85s.22-4.89-1.08-7.31C127.43,73.94,122.58,72.35,122.58,72.35Z"/>
    <path d="M142.81,75.25s-1,4.46-4.31,6.26a14.57,14.57,0,0,1-7.78,1.85s1.79-4.55,4-6.24C137.73,74.73,142.81,75.25,142.81,75.25Z"/>
    <path d="M122.83,63.58s-.08,4.49,2.62,7a14.25,14.25,0,0,0,7,3.6s-.62-4.75-2.29-6.87C127.77,64.29,122.83,63.58,122.83,63.58Z"/>
    <path d="M142.84,62.94s-.23,4.48-3.09,6.77a14.28,14.28,0,0,1-7.19,3.11s.95-4.7,2.76-6.7C137.85,63.3,142.84,62.94,142.84,62.94Z"/>
    <path d="M121.57,54.63s.69,4.35,3.72,6.28a14,14,0,0,0,7.33,2.29s-1.41-4.48-3.38-6.24C126.47,54.47,121.57,54.63,121.57,54.63Z"/>
    <path d="M140.78,50.6s.54,4.37-1.83,7.06a14,14,0,0,1-6.41,4.22s.12-4.7,1.52-6.94C136,51.8,140.78,50.6,140.78,50.6Z"/>
    <path d="M118.76,45.89s1.4,4.08,4.65,5.43a13.68,13.68,0,0,0,7.46,1s-2.12-4.08-4.33-5.45C123.46,44.91,118.76,45.89,118.76,45.89Z"/>
    <path d="M136.61,38.74s1.26,4.12-.57,7.13A13.71,13.71,0,0,1,130.57,51s-.69-4.55.29-7C132.23,40.71,136.61,38.74,136.61,38.74Z"/>
    <path d="M114.43,37.79s2,3.7,5.41,4.45a13.4,13.4,0,0,0,7.37-.34s-2.74-3.58-5.1-4.52C118.8,36,114.43,37.79,114.43,37.79Z"/>
    <path d="M130.44,27.85s1.92,3.76.67,7a13.43,13.43,0,0,1-4.4,5.92s-1.44-4.28-.9-6.76C126.55,30.5,130.44,27.85,130.44,27.85Z"/>
    <path d="M108.71,30.58s2.61,3.22,6,3.37a13.14,13.14,0,0,0,7.05-1.59s-3.26-3-5.7-3.5C112.63,28.15,108.71,30.58,108.71,30.58Z"/>
    <path d="M122.47,18.26s2.49,3.31,1.83,6.62a13.18,13.18,0,0,1-3.24,6.46s-2.12-3.88-2-6.37C119.16,21.48,122.47,18.26,122.47,18.26Z"/>
    <path d="M101.88,24.53s3.06,2.66,6.35,2.23A12.89,12.89,0,0,0,114.77,24s-3.65-2.33-6.09-2.41C105.25,21.52,101.88,24.53,101.88,24.53Z"/>
    <path d="M113.07,10.3s3,2.77,2.89,6.08a12.9,12.9,0,0,1-2,6.79s-2.7-3.39-3-5.81C110.42,14,113.07,10.3,113.07,10.3Z"/>
    <path d="M94.15,19.8s3.41,2,6.51,1.08a12.64,12.64,0,0,0,5.85-3.75s-3.92-1.62-6.29-1.28C96.89,16.32,94.15,19.8,94.15,19.8Z"/>
    <path d="M102.52,4.16s3.34,2.16,3.83,5.37a12.64,12.64,0,0,1-.8,6.9s-3.18-2.81-3.92-5.09C100.6,8.15,102.52,4.16,102.52,4.16Z"/>
    <path d="M85.85,16.52s3.64,1.4,6.46-.07a12.36,12.36,0,0,0,5-4.61s-4.06-.9-6.29-.17C87.9,12.69,85.85,16.52,85.85,16.52Z"/>
    <path d="M91.27,0s3.59,1.52,4.61,4.54a12.41,12.41,0,0,1,.4,6.79s-3.55-2.17-4.65-4.24C90.09,4.18,91.27,0,91.27,0Z"/>
    <path d="M91.11,9.3S88.42,10.82,86,10a9.77,9.77,0,0,1-4.45-3s3.08-1.18,4.9-.87C89.06,6.54,91.11,9.3,91.11,9.3Z"/>
  </g>
</svg>